<svg width="50" height="50" viewBox="0 0 50 50" fill="none" xmlns="http://www.w3.org/2000/svg">
<g id="029-2" clip-path="url(#clip0_28_1973)">
<g id="Group">
<g id="Group_2">
<path id="Vector" d="M25 50C38.8071 50 50 38.8071 50 25C50 11.1929 38.8071 0 25 0C11.1929 0 0 11.1929 0 25C0 38.8071 11.1929 50 25 50Z" fill="#424242"/>
</g>
<path id="Vector_2" d="M27.6941 49.8551C38.4397 48.7034 47.1468 40.744 49.4188 30.3745L33.2989 14.2546C33.2989 14.2546 20.1108 13.8901 15.3472 21.7251L22.367 28.7627L16.1159 38.3495L27.6941 49.8551Z" fill="#232323"/>
<g id="Group_3">
<path id="Vector_3" d="M35.398 38.3493H16.1158V31.8406L28.4994 22.4653C30.0697 21.2765 29.6913 19.6187 29.538 19.139C29.3902 18.6769 28.7613 17.1644 26.8714 17.1092C26.8293 17.108 26.7552 17.1073 26.7255 17.1071H24.5358C21.3103 17.1071 21.0598 20.6416 21.0598 21.7249H15.3472C15.3472 15.6425 19.1257 11.3945 24.5358 11.3945L26.7578 11.3946C26.7578 11.3946 26.9445 11.3963 27.0375 11.3989C30.7314 11.5068 33.8485 13.8622 34.9794 17.3994C36.1247 20.9822 34.9347 24.7584 31.9476 27.0198L24.5285 32.6367H35.3981V38.3493H35.398Z" fill="#F8FFFB"/>
</g>
<g id="Group_4">
<g id="Group_5">
<path id="Vector_4" d="M31.9475 27.0198L25.378 31.9937V24.8284L28.4992 22.4655C30.0692 21.2768 29.691 19.619 29.5383 19.1395C29.3905 18.6766 28.7611 17.1646 26.8711 17.1096C26.8287 17.1086 26.7549 17.1076 26.7253 17.1076H25.3779V11.395H26.7578C26.7578 11.395 26.9439 11.397 27.0375 11.3989C30.731 11.5072 33.8482 13.8622 34.979 17.4001C36.1245 20.9822 34.9348 24.7585 31.9475 27.0198Z" fill="#D8D8D8"/>
</g>
<path id="Vector_5" d="M25.3789 32.6367H35.3986V38.3493H25.3789V32.6367Z" fill="#D8D8D8"/>
</g>
</g>
</g>
<defs>
<clipPath id="clip0_28_1973">
<rect width="50" height="50" fill="white"/>
</clipPath>
</defs>
</svg>
