<svg width="50" height="50" viewBox="0 0 50 50" fill="none" xmlns="http://www.w3.org/2000/svg">
<g id="030-3" clip-path="url(#clip0_28_2009)">
<g id="Group">
<g id="Group_2">
<g id="Group_3">
<path id="Vector" d="M25 50C38.8071 50 50 38.8071 50 25C50 11.1929 38.8071 0 25 0C11.1929 0 0 11.1929 0 25C0 38.8071 11.1929 50 25 50Z" fill="#07E5CA"/>
</g>
</g>
<path id="Vector_2" d="M25.2108 33.4376L21.9441 30.5402L18.3864 35.4599L31.9485 49.0207C40.3553 46.5931 46.9399 39.8724 49.1757 31.3859L31.9346 14.145L16.1582 18.4879L23.0847 25.3994L22.7307 26.9751L28.1715 32.2368C28.1715 32.2367 26.302 33.6394 25.2108 33.4376Z" fill="#00B59B"/>
<path id="Vector_3" d="M31.9347 14.1448C30.368 12.3988 27.7513 11.3564 24.935 11.3564C24.3643 11.3564 23.7918 11.4089 23.2336 11.5123L23.0616 11.544C21.348 11.8606 19.7955 12.6483 18.5719 13.8218C17.373 14.9724 16.572 16.4175 16.2555 18.0008L16.1582 18.4876L21.944 18.9254L22.0617 18.6213C22.3971 17.7551 23.2055 17.106 24.1714 16.9273L24.3434 16.8956C25.4346 16.694 26.5552 17.0621 27.2685 17.857C28.2143 18.9106 28.1198 20.6033 27.0621 21.5534C26.5498 22.0138 24.0279 22.5453 23.1891 22.5104L22.7308 22.4907V26.9749L23.1891 26.9553C24.0335 26.9198 26.55 27.452 27.0622 27.9122C28.1198 28.8623 28.2143 30.555 27.2684 31.6087C26.5552 32.4035 25.4345 32.7717 24.3433 32.57L24.1715 32.5383C23.2055 32.3597 22.3971 31.7105 22.0617 30.8443L21.944 30.5402L16.1582 30.978L16.2555 31.4648C16.5719 33.0481 17.3729 34.4933 18.572 35.6439C19.7954 36.8174 21.348 37.605 23.0616 37.9216L23.2334 37.9533C23.7918 38.0567 24.3643 38.1092 24.935 38.1092C27.7513 38.1092 30.368 37.0668 31.9346 35.3209C34.5744 32.3793 34.45 27.806 31.7093 24.7328C34.45 21.6597 34.5745 17.0863 31.9347 14.1448Z" fill="#F8FFFB"/>
<path id="Vector_4" d="M31.709 24.7324C34.4502 27.8057 34.5742 32.3789 31.9346 35.3213C30.3799 37.0527 27.792 38.0928 25 38.1084V32.623C25.8672 32.6064 26.6992 32.2441 27.2686 31.6084C28.2139 30.5547 28.1201 28.8623 27.0625 27.9121C26.7793 27.6582 25.8857 27.3818 25 27.1914V22.2734C25.8857 22.083 26.7793 21.8076 27.0625 21.5537C28.1201 20.6035 28.2139 18.9111 27.2686 17.8574C26.6992 17.2217 25.8672 16.8594 25 16.8428V11.3574C27.792 11.373 30.3799 12.4121 31.9346 14.1445C34.5742 17.0859 34.4502 21.6592 31.709 24.7324Z" fill="#D8D8D8"/>
</g>
</g>
<defs>
<clipPath id="clip0_28_2009">
<rect width="50" height="50" fill="white"/>
</clipPath>
</defs>
</svg>
