<svg width="50" height="50" viewBox="0 0 50 50" fill="none" xmlns="http://www.w3.org/2000/svg">
<g id="032-5" clip-path="url(#clip0_28_1942)">
<g id="Group">
<g id="Group_2">
<path id="Vector" d="M25 50C38.8071 50 50 38.8071 50 25C50 11.1929 38.8071 0 25 0C11.1929 0 0 11.1929 0 25C0 38.8071 11.1929 50 25 50Z" fill="#07E5CA"/>
</g>
<path id="Vector_2" d="M30.962 49.2827C41.2277 46.7707 49.005 37.9204 49.9102 27.1145L34.4461 11.6504L19.4928 13.2487L15.4854 26.252L21.6316 32.2354L17.8486 36.21L30.962 49.2827Z" fill="#00B59B"/>
<g id="Group_3">
<path id="Vector_3" d="M22.8604 17.3145L22.3262 20.4453L24.5811 20.3389C27.1494 20.2168 29.6875 20.9854 31.5449 22.7637C35.127 26.1934 35.4316 31.8525 32.2383 35.6465C30.3809 37.8535 27.6592 39.0908 24.8359 39.0908C24.2148 39.0908 23.5889 39.0312 22.9658 38.9082L22.7676 38.8691C20.8887 38.499 19.1875 37.5791 17.8486 36.21C16.5391 34.8701 15.668 33.1943 15.3232 31.3555L21.0498 30.8936C21.4941 32.1172 22.5605 33.0557 23.8633 33.3125L24.0615 33.3516C25.4922 33.6338 26.9648 33.1152 27.9043 31.999C29.1797 30.4844 29.0586 28.2246 27.6279 26.8545C26.8857 26.1436 25.8721 25.7656 24.8467 25.8125L15.4854 26.252L18.1299 11.6504H34.4461V17.3145H22.8604Z" fill="#F8FFFB"/>
</g>
<g id="Group_4">
<path id="Vector_4" d="M31.5449 22.7637C35.127 26.1934 35.4316 31.8526 32.2383 35.6465C30.417 37.8106 27.7646 39.043 25 39.0889V33.4239C26.1104 33.3789 27.1699 32.8711 27.9043 31.9991C29.1797 30.4844 29.0586 28.2246 27.6279 26.8545C26.9229 26.1787 25.9727 25.8037 25 25.8086V20.3272C27.4238 20.3037 29.7881 21.0821 31.5449 22.7637Z" fill="#D8D8D8"/>
<path id="Vector_5" d="M25 11.6504H34.4463V17.3145H25V11.6504Z" fill="#D8D8D8"/>
</g>
</g>
</g>
<defs>
<clipPath id="clip0_28_1942">
<rect width="50" height="50" fill="white"/>
</clipPath>
</defs>
</svg>
