<svg width="50" height="50" viewBox="0 0 50 50" fill="none" xmlns="http://www.w3.org/2000/svg">
<g id="035-8" clip-path="url(#clip0_28_1898)">
<g id="Group">
<g id="Group_2">
<path id="Vector" d="M25 50C38.8071 50 50 38.8071 50 25C50 11.1929 38.8071 0 25 0C11.1929 0 0 11.1929 0 25C0 38.8071 11.1929 50 25 50Z" fill="#FFB54A"/>
</g>
<path id="Vector_2" d="M48.9232 32.2755L31.267 14.6192C31.267 14.6192 21.7557 14.0095 20.6558 19.7608C19.556 25.5121 18.9443 36.6064 18.9443 36.6064L31.4865 49.1485C39.8151 46.9169 46.4275 40.4926 48.9232 32.2755Z" fill="#F9880D"/>
<path id="Vector_3" d="M31.5404 24.5488C32.5263 23.2059 33.1103 21.5505 33.1103 19.7606C33.1103 15.2887 29.4721 11.6504 25.0001 11.6504C20.5281 11.6504 16.8899 15.2887 16.8899 19.7606C16.8899 21.5505 17.4739 23.206 18.4598 24.5488C16.9421 26.0357 15.998 28.106 15.998 30.3935C15.998 34.8232 19.6019 38.4271 24.0317 38.4271H25.9687C30.3984 38.4271 34.0023 34.8233 34.0023 30.3935C34.0022 28.106 33.0581 26.0357 31.5404 24.5488ZM25.0001 17.3145C26.3488 17.3145 27.4462 18.4118 27.4462 19.7606C27.4462 21.1094 26.3489 22.2067 25.0001 22.2067C23.6513 22.2067 22.554 21.1095 22.554 19.7606C22.554 18.4118 23.6514 17.3145 25.0001 17.3145ZM25.9686 32.763H24.0316C22.725 32.763 21.662 31.7 21.662 30.3934C21.662 29.0023 22.7937 27.8707 24.1846 27.8707H25.8155C27.2064 27.8707 28.3381 29.0023 28.3381 30.3934C28.3382 31.7001 27.2752 32.763 25.9686 32.763Z" fill="#F8FFFB"/>
<path id="Vector_4" d="M31.54 24.5488C32.5264 23.2061 33.1104 21.5508 33.1104 19.7607C33.1104 15.2891 29.4717 11.6504 25 11.6504V17.3145C26.3486 17.3145 27.4463 18.4121 27.4463 19.7607C27.4463 21.1094 26.3486 22.207 25 22.207V27.8711H25.8154C27.2061 27.8711 28.3379 29.002 28.3379 30.3936C28.3379 31.7002 27.2754 32.7627 25.9688 32.7627H25V38.4268H25.9688C30.3984 38.4268 34.002 34.8232 34.002 30.3936C34.002 28.1055 33.0576 26.0361 31.54 24.5488Z" fill="#D8D8D8"/>
</g>
</g>
<defs>
<clipPath id="clip0_28_1898">
<rect width="50" height="50" fill="white"/>
</clipPath>
</defs>
</svg>
