<svg width="22" height="22" viewBox="0 0 22 22" fill="none" xmlns="http://www.w3.org/2000/svg">
  <path d="M16.499 0.00457742L13.6462 0C10.441 0 8.36976 2.12507 8.36976 5.41417V7.91047H5.50132C5.25345 7.91047 5.05273 8.11142 5.05273 8.35929V11.9761C5.05273 12.224 5.25368 12.4247 5.50132 12.4247H8.36976V21.5512C8.36976 21.7991 8.57048 21.9998 8.81835 21.9998H12.5609C12.8087 21.9998 13.0094 21.7988 13.0094 21.5512V12.4247H16.3633C16.6112 12.4247 16.8119 12.224 16.8119 11.9761L16.8133 8.35929C16.8133 8.24027 16.7659 8.1263 16.6819 8.04207C16.5979 7.95785 16.4835 7.91047 16.3645 7.91047H13.0094V5.79433C13.0094 4.77723 13.2518 4.26089 14.5767 4.26089L16.4986 4.26021C16.7462 4.26021 16.9469 4.05926 16.9469 3.81162V0.453165C16.9469 0.205755 16.7464 0.00503516 16.499 0.00457742Z" fill="#0A033C"/>
</svg>