<svg width="22" height="19" viewBox="0 0 22 19" fill="none" xmlns="http://www.w3.org/2000/svg">
  <g clip-path="url(#clip0_28_1678)">
    <path d="M20.9205 17.3732C20.9677 17.3736 21.0145 17.3645 21.058 17.3463C21.1015 17.3281 21.1408 17.3013 21.1733 17.2674C21.2059 17.2336 21.2311 17.1935 21.2474 17.1496C21.2637 17.1058 21.2706 17.059 21.2679 17.0124C21.2679 16.7565 21.112 16.6343 20.7922 16.6343H20.2754V17.9738H20.4698V17.3899H20.7086L20.7141 17.397L21.0848 17.9738H21.2926L20.8938 17.3768L20.9205 17.3732ZM20.6957 17.239H20.4703V16.7861H20.756C20.9036 16.7861 21.0718 16.81 21.0718 17.0013C21.0718 17.2213 20.9016 17.239 20.6946 17.239" fill="#0A033C"/>
    <path d="M15.8502 15.694H13.0939V11.42C13.0939 10.4008 13.0756 9.08882 11.6604 9.08882C10.2248 9.08882 10.0051 10.1993 10.0051 11.3458V15.6937H7.24881V6.90463H9.89488V8.10575H9.93192C10.1967 7.65744 10.5794 7.28864 11.0391 7.03863C11.4989 6.78861 12.0185 6.66675 12.5427 6.68602C15.3363 6.68602 15.8514 8.50546 15.8514 10.8724L15.8502 15.694ZM4.13878 5.70323C3.82242 5.70329 3.51314 5.61046 3.25007 5.43647C2.987 5.26249 2.78195 5.01518 2.66084 4.7258C2.53972 4.43643 2.50798 4.11799 2.56964 3.81076C2.6313 3.50353 2.7836 3.2213 3.00726 2.99976C3.23091 2.77823 3.5159 2.62734 3.82616 2.56617C4.13643 2.50501 4.45804 2.53632 4.75033 2.65614C5.04263 2.77596 5.29248 2.97891 5.46828 3.23933C5.64409 3.49974 5.73796 3.80593 5.73802 4.11917C5.73805 4.32716 5.69671 4.53311 5.61636 4.72528C5.53601 4.91744 5.41824 5.09206 5.26973 5.23915C5.12123 5.38625 4.94491 5.50294 4.75086 5.58256C4.55681 5.66219 4.34883 5.70319 4.13878 5.70323ZM5.51693 15.694H2.75775V6.90463H5.51693V15.694ZM17.2244 0.0012549H1.3727C1.01292 -0.00276533 0.666217 0.134812 0.408822 0.383756C0.151426 0.632699 0.00439102 0.972641 0 1.32888V17.0896C0.00424073 17.446 0.15119 17.7861 0.408576 18.0353C0.665963 18.2845 1.01274 18.4224 1.3727 18.4186H17.2244C17.5851 18.4231 17.9328 18.2856 18.1912 18.0364C18.4496 17.7872 18.5975 17.4467 18.6025 17.0896V1.32775C18.5974 0.970797 18.4494 0.630469 18.191 0.381531C17.9325 0.132594 17.5849 -0.00459043 17.2244 0.000117282" fill="#0A033C"/>
    <path d="M20.7197 16.0371C20.3843 16.0403 20.0639 16.1749 19.8285 16.4113C19.593 16.6478 19.4618 16.967 19.4634 17.2991C19.465 17.6311 19.5994 17.949 19.8371 18.1833C20.0748 18.4175 20.3965 18.549 20.7319 18.549C21.0672 18.549 21.3889 18.4175 21.6267 18.1833C21.8644 17.949 21.9987 17.6311 22.0003 17.2991C22.0019 16.967 21.8707 16.6478 21.6353 16.4113C21.3999 16.1749 21.0794 16.0403 20.7441 16.0371H20.7197ZM20.7197 18.4052C20.4997 18.4088 20.2836 18.3478 20.0987 18.2298C19.9138 18.1118 19.7683 17.9422 19.6808 17.7424C19.5932 17.5426 19.5675 17.3215 19.6068 17.1072C19.6461 16.8929 19.7487 16.6949 19.9017 16.5384C20.0546 16.3818 20.251 16.2736 20.466 16.2276C20.681 16.1816 20.905 16.1997 21.1097 16.2797C21.3143 16.3597 21.4903 16.4979 21.6156 16.677C21.7408 16.8561 21.8096 17.0679 21.8133 17.2857C21.8133 17.292 21.8133 17.2979 21.8133 17.3042C21.8194 17.5899 21.7107 17.8663 21.5111 18.0727C21.3114 18.2791 21.0372 18.3985 20.7487 18.4047H20.7199" fill="#0A033C"/>
  </g>
  <defs>
    <clipPath id="clip0_28_1678">
      <rect width="22" height="18.5714" fill="white"/>
    </clipPath>
  </defs>
</svg>