<svg width="92" height="16" viewBox="0 0 92 16" fill="none" xmlns="http://www.w3.org/2000/svg">
<path d="M15.9583 6.04621C15.8535 5.70813 15.5662 5.46802 15.2262 5.43605L10.6082 4.99849L8.78207 0.538446C8.64742 0.211582 8.34077 0 8.00006 0C7.65936 0 7.35271 0.211582 7.21806 0.53921L5.39197 4.99849L0.77321 5.43605C0.433846 5.46878 0.147218 5.70813 0.0418691 6.04621C-0.0634801 6.38428 0.0338122 6.75509 0.290532 6.98884L3.78121 10.1833L2.75189 14.9147C2.67657 15.2626 2.80597 15.6222 3.08259 15.8308C3.23128 15.9429 3.40523 16 3.58065 16C3.7319 16 3.88193 15.9575 4.01657 15.8734L8.00006 13.389L11.9821 15.8734C12.2735 16.0563 12.6408 16.0396 12.9168 15.8308C13.1935 15.6215 13.3228 15.2618 13.2475 14.9147L12.2182 10.1833L15.7089 6.98947C15.9656 6.75509 16.0636 6.38492 15.9583 6.04621Z" fill="#FFC107"/>
<path d="M34.9583 6.04621C34.8535 5.70813 34.5662 5.46802 34.2262 5.43605L29.6082 4.99849L27.7821 0.538446C27.6474 0.211582 27.3408 0 27.0001 0C26.6594 0 26.3527 0.211582 26.2181 0.53921L24.392 4.99849L19.7732 5.43605C19.4338 5.46878 19.1472 5.70813 19.0419 6.04621C18.9365 6.38428 19.0338 6.75509 19.2905 6.98884L22.7812 10.1833L21.7519 14.9147C21.6766 15.2626 21.806 15.6222 22.0826 15.8308C22.2313 15.9429 22.4052 16 22.5806 16C22.7319 16 22.8819 15.9575 23.0166 15.8734L27.0001 13.389L30.9821 15.8734C31.2735 16.0563 31.6408 16.0396 31.9168 15.8308C32.1935 15.6215 32.3228 15.2618 32.2475 14.9147L31.2182 10.1833L34.7089 6.98947C34.9656 6.75509 35.0636 6.38492 34.9583 6.04621Z" fill="#FFC107"/>
<path d="M53.9583 6.04621C53.8535 5.70813 53.5662 5.46802 53.2262 5.43605L48.6082 4.99849L46.7821 0.538446C46.6474 0.211582 46.3408 0 46.0001 0C45.6594 0 45.3527 0.211582 45.2181 0.53921L43.392 4.99849L38.7732 5.43605C38.4338 5.46878 38.1472 5.70813 38.0419 6.04621C37.9365 6.38428 38.0338 6.75509 38.2905 6.98884L41.7812 10.1833L40.7519 14.9147C40.6766 15.2626 40.806 15.6222 41.0826 15.8308C41.2313 15.9429 41.4052 16 41.5806 16C41.7319 16 41.8819 15.9575 42.0166 15.8734L46.0001 13.389L49.9821 15.8734C50.2735 16.0563 50.6408 16.0396 50.9168 15.8308C51.1935 15.6215 51.3228 15.2618 51.2475 14.9147L50.2182 10.1833L53.7089 6.98947C53.9656 6.75509 54.0636 6.38492 53.9583 6.04621Z" fill="#FFC107"/>
<path d="M72.9583 6.04621C72.8535 5.70813 72.5662 5.46802 72.2262 5.43605L67.6082 4.99849L65.7821 0.538446C65.6474 0.211582 65.3408 0 65.0001 0C64.6594 0 64.3527 0.211582 64.2181 0.53921L62.392 4.99849L57.7732 5.43605C57.4338 5.46878 57.1472 5.70813 57.0419 6.04621C56.9365 6.38428 57.0338 6.75509 57.2905 6.98884L60.7812 10.1833L59.7519 14.9147C59.6766 15.2626 59.806 15.6222 60.0826 15.8308C60.2313 15.9429 60.4052 16 60.5806 16C60.7319 16 60.8819 15.9575 61.0166 15.8734L65.0001 13.389L68.9821 15.8734C69.2735 16.0563 69.6408 16.0396 69.9168 15.8308C70.1935 15.6215 70.3228 15.2618 70.2475 14.9147L69.2182 10.1833L72.7089 6.98947C72.9656 6.75509 73.0636 6.38492 72.9583 6.04621Z" fill="#FFC107"/>
<path d="M91.9583 6.04621C91.8535 5.70813 91.5662 5.46802 91.2262 5.43605L86.6082 4.99849L84.7821 0.538446C84.6474 0.211582 84.3408 0 84.0001 0C83.6594 0 83.3527 0.211582 83.2181 0.53921L81.392 4.99849L76.7732 5.43605C76.4338 5.46878 76.1472 5.70813 76.0419 6.04621C75.9365 6.38428 76.0338 6.75509 76.2905 6.98884L79.7812 10.1833L78.7519 14.9147C78.6766 15.2626 78.806 15.6222 79.0826 15.8308C79.2313 15.9429 79.4052 16 79.5806 16C79.7319 16 79.8819 15.9575 80.0166 15.8734L84.0001 13.389L87.9821 15.8734C88.2735 16.0563 88.6408 16.0396 88.9168 15.8308C89.1935 15.6215 89.3228 15.2618 89.2475 14.9147L88.2182 10.1833L91.7089 6.98947C91.9656 6.75509 92.0636 6.38492 91.9583 6.04621Z" fill="#FFC107"/>
</svg>
