<svg width="22" height="18" viewBox="0 0 22 18" fill="none" xmlns="http://www.w3.org/2000/svg">
  <g clip-path="url(#clip0_28_1682)">
    <path d="M6.94644 17.5272C15.1935 17.5272 19.7035 10.8121 19.7035 4.98901C19.7035 4.79827 19.6996 4.60841 19.6908 4.4194C20.5663 3.79737 21.3272 3.02114 21.9274 2.1375C21.124 2.48846 20.2595 2.72473 19.3526 2.83126C20.2782 2.2857 20.9889 1.4227 21.3242 0.393898C20.4579 0.898646 19.4986 1.2655 18.4771 1.46356C17.6589 0.607024 16.4941 0.0712891 15.2043 0.0712891C12.7283 0.0712891 10.7204 2.04478 10.7204 4.47738C10.7204 4.82318 10.7598 5.15954 10.8367 5.48218C7.11025 5.29789 3.80592 3.54437 1.59448 0.878024C1.20943 1.52925 0.987394 2.28572 0.987394 3.09289C0.987394 4.62175 1.77895 5.97143 2.98265 6.76101C2.24704 6.73867 1.55602 6.5402 0.952048 6.20986C0.951388 6.22835 0.951385 6.24638 0.951385 6.26614C0.951385 8.40028 2.49689 10.1821 4.54846 10.5859C4.1717 10.6868 3.77531 10.741 3.36618 10.741C3.07772 10.741 2.79667 10.7131 2.5235 10.6615C3.09432 12.4124 4.74954 13.6866 6.71194 13.7222C5.17736 14.9043 3.24423 15.6084 1.14323 15.6084C0.781767 15.6084 0.424682 15.5882 0.0737305 15.5474C2.05806 16.7975 4.41426 17.5269 6.94668 17.5269" fill="#0A033C"/>
  </g>
  <defs>
    <clipPath id="clip0_28_1682">
      <rect width="22" height="17.6" fill="white"/>
    </clipPath>
  </defs>
</svg>